# xmcd CD database file
#
# Track frame offsets:
#	150
#	33064
#	52668
#	66638
#	79136
#	107170
#	140413
#	179019
#	221329
#	248101
#	310806
#
# Disc length: 4570 seconds
#
# Revision: 0
# Processed by: cddbd v1.5.2PL0 Copyright (c) Steve Scherf et al.
# Submitted via: CDex 1.70beta2
#
DISCID=9611d80b
DTITLE=Various Artist - From Modern Jazz To New Thing CD77
DYEAR=2010
DGENRE=Jazz
TTITLE0=Lee Morgan - Just One Of Those Things
TTITLE1=Randy Weston - Saucer Eye
TTITLE2=Charlie Shavers - What Is This Thing Called Love
TTITLE3=Martial Solal - Yes Or No
TTITLE4=Modern Jazz Quartet and Jazz Group De Paris - Sketch 3
TTITLE5=Modern Jazz Quartet and Jazz Group De Paris - Ambiguité
TTITLE6=Gene Ammons - The Real Mc Coy
TTITLE7=Sonny Clark - Cool Struttin'
TTITLE8=Curtis Counce - Carl's Blues
TTITLE9=John Coltrane - Lush Life
TTITLE10=Horace Silver - Melancholy Mood
EXTD=YEAR: 2010
EXTT0=
EXTT1=
EXTT2=
EXTT3=
EXTT4=
EXTT5=
EXTT6=
EXTT7=
EXTT8=
EXTT9=
EXTT10=
PLAYORDER=
